<?xml version="1.0" encoding="utf-8"?>
<svg xmlns="http://www.w3.org/2000/svg" width="1209" height="361" viewBox="0 0 1209 361" fill="none">
<path d="M514 278.773V84.8779H581.855L615.367 253.844H620.353L653.865 84.8779H721.72V278.773H686.269V111.746H681.284L648.048 278.773H587.671L554.436 111.746H549.451V278.773H514Z" fill="#242038"/>
<path d="M824.703 282.651C811.04 282.651 798.761 279.881 787.868 274.341C776.974 268.802 768.388 260.769 762.11 250.243C755.833 239.717 752.694 227.068 752.694 212.295V207.863C752.694 193.09 755.833 180.441 762.11 169.915C768.388 159.389 776.974 151.356 787.868 145.816C798.761 140.277 811.04 137.507 824.703 137.507C838.367 137.507 850.645 140.277 861.539 145.816C872.433 151.356 881.018 159.389 887.296 169.915C893.574 180.441 896.713 193.09 896.713 207.863V212.295C896.713 227.068 893.574 239.717 887.296 250.243C881.018 260.769 872.433 268.802 861.539 274.341C850.645 279.881 838.367 282.651 824.703 282.651ZM824.703 251.628C835.412 251.628 844.275 248.212 851.291 241.379C858.308 234.362 861.816 224.39 861.816 211.464V208.694C861.816 195.768 858.308 185.888 851.291 179.056C844.46 172.038 835.597 168.53 824.703 168.53C813.994 168.53 805.132 172.038 798.115 179.056C791.099 185.888 787.591 195.768 787.591 208.694V211.464C787.591 224.39 791.099 234.362 798.115 241.379C805.132 248.212 813.994 251.628 824.703 251.628Z" fill="#242038"/>
<path d="M928.925 278.773V84.8779H963.821V278.773H928.925Z" fill="#242038"/>
<path d="M1002.49 278.773V141.385H1037.39V278.773H1002.49ZM1019.94 125.319C1013.66 125.319 1008.31 123.288 1003.88 119.225C999.63 115.163 997.507 109.807 997.507 103.159C997.507 96.5116 999.63 91.1564 1003.88 87.0939C1008.31 83.0313 1013.66 81 1019.94 81C1026.4 81 1031.76 83.0313 1036 87.0939C1040.25 91.1564 1042.37 96.5116 1042.37 103.159C1042.37 109.807 1040.25 115.163 1036 119.225C1031.76 123.288 1026.4 125.319 1019.94 125.319Z" fill="#242038"/>
<path d="M1076.06 278.773V141.385H1110.4V159.389H1115.39C1117.6 154.588 1121.76 150.064 1127.85 145.816C1133.94 141.385 1143.18 139.169 1155.55 139.169C1166.26 139.169 1175.58 141.662 1183.52 146.647C1191.64 151.449 1197.92 158.189 1202.35 166.868C1206.78 175.362 1209 185.334 1209 196.783V278.773H1174.1V199.553C1174.1 189.212 1171.52 181.456 1166.35 176.286C1161.36 171.115 1154.16 168.53 1144.75 168.53C1134.04 168.53 1125.73 172.131 1119.82 179.333C1113.91 186.35 1110.96 196.229 1110.96 208.971V278.773H1076.06Z" fill="#242038"/>
<rect y="0.508789" width="359.939" height="359.983" rx="86.6658" fill="#242038"/>
<path fill-rule="evenodd" clip-rule="evenodd" d="M271.851 276.465C284.351 279.815 297.67 278.061 308.878 271.589L284.48 229.326L260.082 187.063L260.078 187.065L212.956 105.437C212.888 105.32 212.82 105.203 212.751 105.088L212.719 105.033C206.248 93.8237 195.59 85.6447 183.09 82.2948C170.59 78.945 157.271 80.6986 146.063 87.1701L170.461 129.433L194.858 171.697L194.861 171.695L241.979 253.316C242.057 253.451 242.136 253.585 242.217 253.718L242.222 253.727C248.692 264.936 259.35 273.115 271.851 276.465ZM200.076 276.486C212.576 279.836 225.895 278.083 237.102 271.611L212.705 229.348L188.307 187.085L188.306 187.085L141.18 105.451C141.137 105.376 141.094 105.302 141.05 105.227L140.99 105.124L140.949 105.053C134.479 93.8438 123.821 85.6648 111.32 82.3149C101.918 79.7951 91.8763 80.1305 82.7792 83.219C72.894 86.3357 65.7263 95.5767 65.7263 106.492V226.642C65.7174 227.022 65.7129 227.403 65.7129 227.785C65.7129 240.715 70.8538 253.116 80.0048 262.259C89.1557 271.402 101.567 276.538 114.508 276.538V228.098C114.517 227.827 114.522 227.555 114.522 227.282V170.831C110.556 164.416 105.844 156.083 101.035 146.845C89.8558 125.367 82.3891 107.125 84.3576 106.1C84.5926 105.978 84.9513 106.106 85.4199 106.464L85.459 106.532C88.9697 109.31 98.3539 124.355 108.137 143.15C111.503 149.616 114.532 155.79 117.069 161.288L123.089 171.717L123.09 171.716L170.203 253.329C170.25 253.41 170.297 253.49 170.344 253.57C170.378 253.63 170.412 253.689 170.447 253.749C176.917 264.957 187.575 273.136 200.076 276.486Z" fill="url(#paint0_linear_5398_1273)"/>
<defs>
<linearGradient id="paint0_linear_5398_1273" x1="65.7129" y1="179.456" x2="308.878" y2="179.456" gradientUnits="userSpaceOnUse">
<stop offset="0.197917" stop-color="#E4FF1A"/>
<stop offset="0.822917" stop-color="#21F4F0"/>
</linearGradient>
</defs>
</svg>